<svg width="724" height="276" viewBox="0 0 724 276" fill="none" xmlns="http://www.w3.org/2000/svg">
<path d="M26.636 110.789V204.098L62.9276 158.401H94.8908V159.982L50.9414 211.923L101.05 270.106V272.187H68.9207L26.7193 220.663V272.187H0V110.789H26.636Z" fill="black"/>
<path d="M215.003 215.419C215.003 248.214 193.777 274.767 158.818 274.767C123.858 274.767 102.799 248.214 102.799 215.419C102.799 182.873 124.274 156.07 158.568 156.07C192.862 156.07 215.003 182.873 215.003 215.419ZM129.518 215.419C129.518 232.732 139.34 248.88 158.818 248.88C178.295 248.88 188.117 232.732 188.117 215.419C188.117 198.355 176.714 181.707 158.818 181.707C139.507 181.707 129.518 198.355 129.518 215.419Z" fill="black"/>
<path d="M343.023 215.419C343.023 248.214 321.797 274.767 286.837 274.767C251.877 274.767 230.818 248.214 230.818 215.419C230.818 182.873 252.294 156.07 286.588 156.07C320.881 156.07 343.023 182.873 343.023 215.419ZM257.454 215.419C257.454 232.732 267.276 248.88 286.754 248.88C306.232 248.88 316.054 232.732 316.054 215.419C316.054 198.355 304.65 181.707 286.754 181.707C267.526 181.707 257.454 198.355 257.454 215.419Z" fill="black"/>
<path d="M446.07 158.401V171.802L396.377 244.552H446.486V272.27H355.674V260.45L407.281 184.038H359.586V158.401H446.07Z" fill="black"/>
<path d="M553.447 158.401H579.084V272.27H553.946L552.614 255.623C546.455 269.024 529.641 275.516 517.571 275.683C485.608 275.933 461.969 255.123 461.969 215.169C461.969 175.881 486.69 155.321 518.154 155.571C532.554 155.571 546.372 162.73 552.531 174.05L553.447 158.401ZM488.688 215.169C488.688 236.894 502.922 249.796 520.651 249.796C562.686 249.796 562.686 180.709 520.651 180.709C502.922 180.792 488.688 193.444 488.688 215.169Z" fill="black"/>
<path d="M577.336 0L604.388 49.6928L574.755 67.6721L547.703 17.9793L577.336 0Z" fill="#F34F05"/>
<path d="M703.941 36.4579L667.317 78.7426L642.096 54.354L678.72 12.0693L703.941 36.4579Z" fill="#F34F05"/>
<path d="M708.85 175.298L660.156 149.994L675.305 117.615L723.999 142.919L708.85 175.298Z" fill="#F34F05"/>
<path d="M629.692 102.382H516.822V132.098H629.692V102.382Z" fill="#F34F05"/>
<path d="M629.701 221.539V102.343H601.567V221.539H629.701Z" fill="#F34F05"/>
</svg>
